<?xml version="1.0" standalone="no"?>
<!DOCTYPE svg PUBLIC "-//W3C//DTD SVG 20010904//EN"
 "http://www.w3.org/TR/2001/REC-SVG-20010904/DTD/svg10.dtd">
<svg version="1.0" xmlns="http://www.w3.org/2000/svg"
 width="700.000000pt" height="700.000000pt" viewBox="0 0 700.000000 700.000000"
 preserveAspectRatio="xMidYMid meet">

<g transform="translate(0.000000,700.000000) scale(0.100000,-0.100000)"
fill="#000000" stroke="none">
<path d="M2195 6565 c-238 -39 -405 -91 -610 -190 -535 -260 -923 -732 -1075
-1309 -78 -294 -82 -667 -10 -971 79 -337 261 -669 505 -924 172 -180 339
-304 550 -410 329 -164 630 -230 995 -218 391 14 751 131 1081 353 61 41 113
74 117 74 4 0 164 -157 355 -348 l347 -348 -36 -34 c-72 -69 -95 -179 -55
-265 26 -55 1431 -1458 1481 -1479 62 -25 123 -29 182 -12 49 14 70 33 293
255 148 148 247 255 257 278 24 52 23 137 -2 187 -30 63 -1421 1449 -1480
1475 -54 24 -154 28 -204 7 -19 -8 -51 -30 -73 -49 l-39 -36 -352 352 -351
352 47 65 c158 216 259 431 327 695 48 188 60 285 59 500 0 220 -18 358 -69
535 -221 766 -840 1320 -1625 1455 -136 23 -497 29 -615 10z m454 -295 c214
-23 372 -67 560 -156 212 -101 337 -189 501 -354 124 -124 217 -251 299 -410
136 -262 191 -490 191 -790 0 -358 -91 -659 -288 -954 -200 -298 -498 -533
-835 -657 -196 -72 -383 -103 -607 -103 -232 1 -430 39 -648 126 -372 148
-693 443 -882 811 -133 258 -184 474 -184 777 0 96 6 211 13 255 80 505 366
936 799 1205 117 72 207 115 333 158 259 89 497 118 748 92z"/>
<path d="M1955 5165 c-46 -21 -63 -39 -80 -78 -18 -43 -19 -82 -2 -120 7 -15
98 -113 202 -217 l190 -190 -195 -194 c-107 -107 -197 -203 -201 -213 -37 -92
36 -203 134 -203 71 0 106 25 294 213 l183 182 188 -187 c103 -102 198 -191
210 -198 34 -17 104 -14 141 5 45 23 71 70 71 128 0 27 -5 58 -11 70 -6 12
-95 106 -197 210 l-187 187 187 188 c181 181 218 229 218 282 0 35 -39 100
-73 120 -36 22 -115 27 -150 9 -12 -6 -106 -95 -209 -197 l-188 -187 -187 187
c-220 219 -257 241 -338 203z"/>
</g>
</svg>
